<svg xmlns="http://www.w3.org/2000/svg" viewBox="0 0 800 600" role="img">
<defs>
<linearGradient id="g" x1="0" y1="0" x2="1" y2="1">
<stop offset="0" stop-color="#0096D6" stop-opacity="0.14"/>
<stop offset="1" stop-color="#0096D6" stop-opacity="0.03"/>
</linearGradient>
<filter id="sh" x="-20%" y="-20%" width="140%" height="140%">
<feDropShadow dx="0" dy="8" stdDeviation="14" flood-color="#0B1C2C" flood-opacity="0.10"/>
</filter>
</defs>
<rect width="800" height="600" fill="#E9F1F8"/>
<rect width="800" height="600" fill="url(#g)"/>
<text x="56" y="86" font-family="Inter, Segoe UI, sans-serif" font-size="15" font-weight="800" letter-spacing="2" fill="#0096D6">UNDER THE HOOD</text><g filter="url(#sh)"><rect x="250" y="140" width="300" height="70" rx="18" fill="#FFFFFF" stroke="#D9E5F0" stroke-width="1.5"/></g><text x="400.0" y="184.0" font-family="Inter, Segoe UI, sans-serif" font-size="26" font-weight="600" fill="#0B1C2C" text-anchor="middle">Applications</text><g filter="url(#sh)"><rect x="250" y="250" width="300" height="70" rx="18" fill="#FFFFFF" stroke="#D9E5F0" stroke-width="1.5"/></g><text x="400.0" y="294.0" font-family="Inter, Segoe UI, sans-serif" font-size="26" font-weight="600" fill="#0B1C2C" text-anchor="middle">Operating system</text><g filter="url(#sh)"><rect x="250" y="360" width="300" height="70" rx="18" fill="#0096D6" stroke="#0096D6" stroke-width="2.5"/></g><text x="400.0" y="404.0" font-family="Inter, Segoe UI, sans-serif" font-size="26" font-weight="600" fill="#FFFFFF" text-anchor="middle">Drivers</text><g filter="url(#sh)"><rect x="250" y="470" width="300" height="70" rx="18" fill="#072A47" stroke="#072A47" stroke-width="1.5"/></g><text x="400.0" y="514.0" font-family="Inter, Segoe UI, sans-serif" font-size="26" font-weight="600" fill="#FFFFFF" text-anchor="middle">Hardware</text><line x1="400" y1="210" x2="400" y2="240" stroke="#0096D6" stroke-width="3"/><path d="M400 250 l-8 -14 l8 5 l8 -5 z" fill="#0096D6"/><line x1="400" y1="320" x2="400" y2="350" stroke="#0096D6" stroke-width="3"/><path d="M400 360 l-8 -14 l8 5 l8 -5 z" fill="#0096D6"/><line x1="400" y1="430" x2="400" y2="460" stroke="#0096D6" stroke-width="3"/><path d="M400 470 l-8 -14 l8 5 l8 -5 z" fill="#0096D6"/><text x="400" y="556" font-family="Inter, Segoe UI, sans-serif" font-size="16" fill="#52677C" text-anchor="middle">Drivers sit between the OS and the metal</text>
</svg>