<svg xmlns="http://www.w3.org/2000/svg" viewBox="0 0 800 600" role="img">
<defs>
<linearGradient id="g" x1="0" y1="0" x2="1" y2="1">
<stop offset="0" stop-color="#0096D6" stop-opacity="0.14"/>
<stop offset="1" stop-color="#0096D6" stop-opacity="0.03"/>
</linearGradient>
<filter id="sh" x="-20%" y="-20%" width="140%" height="140%">
<feDropShadow dx="0" dy="8" stdDeviation="14" flood-color="#0B1C2C" flood-opacity="0.10"/>
</filter>
</defs>
<rect width="800" height="600" fill="#E9F1F8"/>
<rect width="800" height="600" fill="url(#g)"/>
<text x="56" y="86" font-family="Inter, Segoe UI, sans-serif" font-size="15" font-weight="800" letter-spacing="2" fill="#0096D6">WHY A DRIVER MATTERS</text><g filter="url(#sh)"><rect x="70" y="210" width="210" height="150" rx="18" fill="#FFFFFF" stroke="#D9E5F0" stroke-width="1.5"/></g><text x="175.0" y="281.0" font-family="Inter, Segoe UI, sans-serif" font-size="26" font-weight="600" fill="#0B1C2C" text-anchor="middle">Software</text><text x="175.0" y="307.0" font-family="Inter, Segoe UI, sans-serif" font-size="15" fill="#52677C" text-anchor="middle">Speaks in general terms</text><text x="175" y="395" font-family="Inter, Segoe UI, sans-serif" font-size="14" fill="#52677C" text-anchor="middle">"play this", "draw that"</text><g filter="url(#sh)"><rect x="300" y="200" width="200" height="170" rx="18" fill="#0096D6" stroke="#0096D6" stroke-width="2.5"/></g><text x="400.0" y="294.0" font-family="Inter, Segoe UI, sans-serif" font-size="26" font-weight="600" fill="#FFFFFF" text-anchor="middle">Driver</text><text x="400" y="300" font-family="Inter, Segoe UI, sans-serif" font-size="15" fill="#FFFFFF" text-anchor="middle" opacity="0.9">the translator</text><g filter="url(#sh)"><rect x="520" y="210" width="210" height="150" rx="18" fill="#FFFFFF" stroke="#D9E5F0" stroke-width="1.5"/></g><text x="625.0" y="281.0" font-family="Inter, Segoe UI, sans-serif" font-size="26" font-weight="600" fill="#0B1C2C" text-anchor="middle">Hardware</text><text x="625.0" y="307.0" font-family="Inter, Segoe UI, sans-serif" font-size="15" fill="#52677C" text-anchor="middle">Speaks in exact signals</text><text x="625" y="395" font-family="Inter, Segoe UI, sans-serif" font-size="14" fill="#52677C" text-anchor="middle">precise electrical steps</text><line x1="292" y1="285" x2="288" y2="285" stroke="#0096D6" stroke-width="3" stroke-linecap="round"/><path d="M300 285 l-14 -7 l4 7 l-4 7 z" fill="#0096D6"/><path d="M280 285 l14 -7 l-4 7 l4 7 z" fill="#0096D6"/><line x1="512" y1="285" x2="508" y2="285" stroke="#0096D6" stroke-width="3" stroke-linecap="round"/><path d="M520 285 l-14 -7 l4 7 l-4 7 z" fill="#0096D6"/><path d="M500 285 l14 -7 l-4 7 l4 7 z" fill="#0096D6"/><text x="400" y="556" font-family="Inter, Segoe UI, sans-serif" font-size="16" fill="#52677C" text-anchor="middle">A real-time translator between two worlds</text>
</svg>