<svg xmlns="http://www.w3.org/2000/svg" viewBox="0 0 24 24" fill="#F59E0B">
  <path d="M12.504 0c-.077 0-.154.001-.231.003-.245.008-.486.03-.721.066C7.584.465 4.397 3.36 4.056 7.12c-.018.198-.029.399-.031.601-.002.199.005.396.02.592.085 1.103.363 2.134.807 3.078a11.95 11.95 0 0 0 1.81 2.545c.305.322.637.622.99.9.517.406 1.08.753 1.68 1.035.576.272 1.184.476 1.807.606l1.251 2.573a.66.66 0 0 1-.287.89l-.167.08a.66.66 0 0 1-.89-.287L8.657 15.4a.661.661 0 0 0-.89.287l-.08.167a.66.66 0 0 0 .286.89l2.588 1.258a.661.661 0 0 1 .093 1.162l-1.633.833a.66.66 0 0 0-.293.897l.081.165a.661.661 0 0 0 .897.293l1.647-.84a.661.661 0 0 1 .897.293l.08.166a.66.66 0 0 1-.293.897l-1.647.84a.662.662 0 0 0-.293.897l.081.165a.661.661 0 0 0 .897.293l1.647-.84a.662.662 0 0 1 .897.293l.08.166a.66.66 0 0 1-.293.897l-1.647.84a.661.661 0 0 0-.293.897l.081.165a.661.661 0 0 0 .897.293l1.647-.84a.661.661 0 0 1 .897.293l.08.166a.66.66 0 0 1-.293.897l-1.647.84a.661.661 0 0 0-.293.897l.081.165a.661.661 0 0 0 .897.293l1.647-.84a.661.661 0 0 1 .532 1.19l-1.647.84a.661.661 0 0 0-.293.897l.081.165a.661.661 0 0 0 .897.293l1.647-.84a.661.661 0 0 1 .897.293l.08.166a.66.66 0 0 1-.293.897l-1.647.84a.661.661 0 0 0-.293.897l.081.165a.661.661 0 0 0 .897.293l1.647-.84a.661.661 0 0 1 .897.293l.08.166a.66.66 0 0 1-.293.897l-1.647.84a.661.661 0 0 0-.293.897l.081.165a.661.661 0 0 0 .897.293l1.647-.84a.661.661 0 0 1 .604-.064l.293.081a.661.661 0 0 0 .597-1.089l-1.615-.824a.66.66 0 0 1-.033-1.186l1.615-.823a.66.66 0 0 0 .033-1.187l-.166-.08a.661.661 0 0 0-.598.033l-1.615.824a.661.661 0 0 1-.604-.064l-.08-.166a.66.66 0 0 1 .065-.603l1.615-.824a.661.661 0 0 0 .033-1.187l-.166-.08a.66.66 0 0 0-.598.033l-1.615.824a.66.66 0 0 1-.604-.064l-.08-.166a.661.661 0 0 1 .065-.603l1.615-.824a.66.66 0 0 0 .033-1.187l-.166-.08a.66.66 0 0 0-.598.033l-1.615.824a.661.661 0 0 1-.604-.064l-.08-.166a.66.66 0 0 1 .065-.603l1.615-.824a.66.66 0 0 0 .033-1.187l-.166-.08a.661.661 0 0 0-.598.033l-1.615.824a.661.661 0 0 1-.48-.012l-1.615-.824a.66.66 0 0 0-.829.347l-.041.083a.66.66 0 0 0 .347.829l1.615.824c.267.136.377.467.241.734l-.08.166a.661.661 0 0 1-.734.241l-1.615-.824a.66.66 0 0 0-.829.347l-.041.083a.661.661 0 0 0 .347.829l1.615.824c.267.136.377.467.241.734l-.08.166a.66.66 0 0 1-.734.241l-1.615-.824a.66.66 0 0 0-.829.347l-.041.083a.661.661 0 0 0 .347.829l1.615.824c.267.136.377.467.241.734l-.08.166a.66.66 0 0 1-.734.241l-1.615-.824a.661.661 0 0 0-.829.347l-.041.083a.66.66 0 0 0 .347.829l1.615.824c.267.136.377.467.241.734l-.08.166a.66.66 0 0 1-.734.241l-1.615-.824a.661.661 0 0 0-.829.347l-.041.083a.66.66 0 0 0 .347.829l1.615.824c.267.136.377.467.241.734l-.08.166a.66.66 0 0 1-.734.241l-1.615-.824a.66.66 0 0 0-.829.347l-.041.083a.661.661 0 0 0 .347.829l1.615.824c.267.136.377.467.241.734l-.08.166a.66.66 0 0 1-.734.241l-1.615-.824a.66.66 0 0 0-.565.087l-.264-.16a.661.661 0 0 1-.087-.566l.482-1.636a.66.66 0 0 1 .584-.415h1.323l.006-1.322c0-.365.296-.661.661-.661s.661.296.661.661v1.322h1.323c.276 0 .516.17.618.417l.482 1.635c.063.213.015.447-.13.611l-.264.16a.661.661 0 0 1-.565-.087l-1.615-.824a.661.661 0 0 0-.734.241l-.08.166a.661.661 0 0 1-.241.734l1.615.824c.267.136.598.026.734-.241l.08-.166a.66.66 0 0 1 .734-.241l1.615.824c.267.136.598.026.734-.241l.08-.166a.661.661 0 0 1 .734-.241l1.615.824c.267.136.598.026.734-.241l.08-.166a.66.66 0 0 1 .734-.241l1.615.824c.267.136.598.026.734-.241l.08-.166a.66.66 0 0 1 .734-.241l1.615.824c.267.136.598.026.734-.241l.08-.166a.66.66 0 0 1 .734-.241l1.615.824c.267.136.598.026.734-.241l.08-.166a.661.661 0 0 1 .734-.241l1.615.824c.267.136.598.026.734-.241l.08-.166a.66.66 0 0 1 .734-.241l1.615.824c.267.136.598.026.734-.241l.08-.166a.661.661 0 0 1 .734-.241l1.615.824c.267.136.598.026.734-.241l.08-.166a.66.66 0 0 1 .734-.241l1.615.824c.267.136.598.026.734-.241l.08-.166a.661.661 0 0 1 .734-.241l1.615.824c.267.136.598.026.734-.241l.08-.166a.661.661 0 0 1 .734-.241l1.615.824c.123.063.225.16.29.284l.041.083a.66.66 0 0 0 .829.347l1.615-.824a.661.661 0 0 0 .241-.734l-.08-.166a.66.66 0 0 1-.241-.734l1.615-.824a.66.66 0 0 0 .241-.734l-.08-.166a.66.66 0 0 1-.241-.734l1.615-.824a.661.661 0 0 0 .241-.734l-.08-.166a.66.66 0 0 1-.241-.734l1.615-.824a.66.66 0 0 0 .241-.734l-.08-.166a.661.661 0 0 1-.241-.734l1.615-.824a.661.661 0 0 0 .241-.734l-.08-.166a.66.66 0 0 1-.241-.734l1.615-.824a.661.661 0 0 0 .241-.734l-.08-.166a.661.661 0 0 1-.241-.734l1.615-.824a.66.66 0 0 0 .241-.734l-.08-.166a.661.661 0 0 1-.241-.734l1.615-.824a.661.661 0 0 0 .347-.829l-.041-.083a.661.661 0 0 0-.829-.347l-1.615.824a.661.661 0 0 1-.734.241l-.08.166c-.136.267-.026.598.241.734l1.615.824a.66.66 0 0 0 .347.829l-.041.083a.661.661 0 0 1-.829.347l-1.615-.824a.66.66 0 0 1-.734.241l-.08.166c-.136.267-.026.598.241.734l1.615.824a.66.66 0 0 0 .347.829l-.041.083a.661.661 0 0 1-.829.347l-1.615-.824a.661.661 0 0 1-.734.241l-.08.166c-.136.267-.026.598.241.734l1.615.824a.66.66 0 0 0 .347.829l-.041.083a.661.661 0 0 1-.829.347l-1.615-.824a.66.66 0 0 1-.734.241l-.08.166c-.136.267-.026.598.241.734l1.615.824a.66.66 0 0 0 .347.829l-.041.083a.661.661 0 0 1-.829.347l-1.615-.824a.661.661 0 0 1-.734.241l-.08.166c-.136.267-.026.598.241.734l1.615.824a.66.66 0 0 0 .347.829l-.041.083a.661.661 0 0 1-.829.347l-1.615-.824a.661.661 0 0 1-.734.241l-.08.166c-.136.267-.026.598.241.734l1.615.824c.123.063.262.07.391.024l.293-.081a.661.661 0 0 0 .21-1.166l-1.633-.833a.661.661 0 0 1 .093-1.162l2.588-1.258a.661.661 0 0 0 .286-.89l-.08-.167a.661.661 0 0 0-.89-.287l-2.588 1.258a.66.66 0 0 1-.89-.287l-.08-.167a.661.661 0 0 1 .287-.89l1.251-2.573c.623-.13 1.231-.334 1.807-.606.601-.282 1.163-.629 1.68-1.035.353-.278.685-.578.99-.9.566-.597 1.035-1.278 1.393-2.022.33-.696.555-1.451.667-2.24.057-.402.079-.81.064-1.221-.031-.836-.213-1.648-.526-2.407-.32-.772-.772-1.474-1.325-2.075-.559-.606-1.223-1.094-1.956-1.433-.742-.343-1.546-.548-2.367-.607a10.34 10.34 0 0 0-1.052-.033z"/>
</svg>