<svg xmlns="http://www.w3.org/2000/svg" viewBox="0 0 800 600" role="img">
<defs>
<linearGradient id="g" x1="0" y1="0" x2="1" y2="1">
<stop offset="0" stop-color="#0E8FA8" stop-opacity="0.14"/>
<stop offset="1" stop-color="#0E8FA8" stop-opacity="0.03"/>
</linearGradient>
<filter id="sh" x="-20%" y="-20%" width="140%" height="140%">
<feDropShadow dx="0" dy="8" stdDeviation="14" flood-color="#0B1C2C" flood-opacity="0.10"/>
</filter>
</defs>
<rect width="800" height="600" fill="#E9F1F8"/>
<rect width="800" height="600" fill="url(#g)"/>
<text x="56" y="86" font-family="Inter, Segoe UI, sans-serif" font-size="15" font-weight="800" letter-spacing="2" fill="#0E8FA8">HOW IT WORKS</text><g filter="url(#sh)"><rect x="160" y="140" width="480" height="78" rx="16" fill="#FFFFFF" stroke="#D9E5F0" stroke-width="1.5"/></g><text x="400.0" y="175.0" font-family="Inter, Segoe UI, sans-serif" font-size="25" font-weight="600" fill="#0B1C2C" text-anchor="middle">Imaging app</text><text x="400.0" y="200.0" font-family="Inter, Segoe UI, sans-serif" font-size="14" fill="#52677C" text-anchor="middle">"Scan at 300 dpi"</text><line x1="400.0" y1="222" x2="400.0" y2="234" stroke="#0E8FA8" stroke-width="3"/><path d="M400.0 244 l-7 -12 l7 4 l7 -4 z" fill="#0E8FA8"/><g filter="url(#sh)"><rect x="160" y="250" width="480" height="78" rx="16" fill="#0E8FA8" stroke="#0E8FA8" stroke-width="2.5"/></g><text x="400.0" y="285.0" font-family="Inter, Segoe UI, sans-serif" font-size="25" font-weight="600" fill="#FFFFFF" text-anchor="middle">Scanner driver</text><text x="400.0" y="310.0" font-family="Inter, Segoe UI, sans-serif" font-size="14" fill="#FFFFFF" text-anchor="middle">The standard scanning interface</text><line x1="400.0" y1="332" x2="400.0" y2="344" stroke="#0E8FA8" stroke-width="3"/><path d="M400.0 354 l-7 -12 l7 4 l7 -4 z" fill="#0E8FA8"/><g filter="url(#sh)"><rect x="160" y="360" width="480" height="78" rx="16" fill="#FFFFFF" stroke="#D9E5F0" stroke-width="1.5"/></g><text x="400.0" y="395.0" font-family="Inter, Segoe UI, sans-serif" font-size="25" font-weight="600" fill="#0B1C2C" text-anchor="middle">Scanner hardware</text><text x="400.0" y="420.0" font-family="Inter, Segoe UI, sans-serif" font-size="14" fill="#52677C" text-anchor="middle">The sensor sweeps the page</text><line x1="400.0" y1="442" x2="400.0" y2="454" stroke="#0E8FA8" stroke-width="3"/><path d="M400.0 464 l-7 -12 l7 4 l7 -4 z" fill="#0E8FA8"/><g filter="url(#sh)"><rect x="160" y="470" width="480" height="78" rx="16" fill="#FFFFFF" stroke="#D9E5F0" stroke-width="1.5"/></g><text x="400.0" y="505.0" font-family="Inter, Segoe UI, sans-serif" font-size="25" font-weight="600" fill="#0B1C2C" text-anchor="middle">Your file</text><text x="400.0" y="530.0" font-family="Inter, Segoe UI, sans-serif" font-size="14" fill="#52677C" text-anchor="middle">An image or searchable PDF</text><text x="400" y="556" font-family="Inter, Segoe UI, sans-serif" font-size="16" fill="#52677C" text-anchor="middle">The driver lets any app request a scan</text>
</svg>